<svg width="59" height="50" viewBox="0 0 59 50" fill="none" xmlns="http://www.w3.org/2000/svg">
<g clip-path="url(#clip0_69_247)">
<path d="M24.774 21.2199C24.7425 21.4882 24.6959 21.7035 24.6943 21.9189C24.6876 22.9673 24.6876 24.0175 24.6943 25.066C24.6943 25.2962 24.7358 25.5265 24.7624 25.8064C24.7724 25.7816 24.769 25.8163 24.7508 25.8312C24.4085 26.1261 24.3653 26.5004 24.3686 26.9327C24.3869 29.7072 24.3786 32.4817 24.3769 35.2561C24.3769 35.4052 24.362 35.5526 24.3537 35.7166C23.9615 35.7414 23.6243 36.0015 23.2421 35.8027C22.835 35.9899 22.403 35.6801 21.9893 35.864C21.8846 35.9104 21.7434 35.8773 21.6188 35.8773C18.7111 35.8773 15.8035 35.8789 12.8975 35.8739C12.6798 35.8739 12.4621 35.811 12.2428 35.7994C12.0684 35.7895 11.8856 35.7895 11.7178 35.8276C11.3971 35.9004 11.1346 35.7563 11.0798 35.435C11.0615 35.3273 11.0681 35.2147 11.0681 35.1037C11.0631 31.7644 11.0582 28.4235 11.0532 25.0842C11.0482 21.5097 11.0465 17.9352 11.0382 14.3607C11.0282 9.77751 11.0133 5.19593 11 0.612696C11 0.529877 11 0.447057 11 0.364237C11 0.148907 11.113 0.0313029 11.3223 0.00976983C11.4187 -0.000168514 11.5167 0.00148788 11.6131 0.00148788C22.6057 0.00148788 33.5984 0.00148788 44.591 0.00148788C44.91 0.00148788 45.2274 -0.00513769 45.5464 0.00645705C45.8505 0.0180518 45.9917 0.235039 45.9335 0.534846C45.8953 0.735269 45.8737 0.942318 45.8737 1.14605C45.8737 3.86419 45.8837 6.58399 45.8854 9.30212C45.887 17.1832 45.8854 25.0643 45.8903 32.9454C45.8903 33.2171 45.9601 33.4887 45.9718 33.762C45.9834 34.0204 45.9568 34.2822 45.9518 34.5422C45.9485 34.7294 45.9518 34.9165 45.9568 35.1054C45.9568 35.1451 45.9817 35.1849 45.9834 35.2263C46.0166 35.8491 46.0648 35.9949 45.3371 35.9932C42.1386 35.9849 38.9402 35.9833 35.7434 35.9998C35.2981 36.0031 35.0838 35.8342 34.9077 35.4449C34.685 34.9513 34.3859 34.4925 34.1135 34.0221C33.8061 33.4954 33.4937 32.9719 33.1797 32.4485C32.8673 31.9268 32.55 31.41 32.2393 30.8866C32.1296 30.7027 32.0415 30.5072 31.9319 30.3234C31.6993 29.9308 31.4567 29.5449 31.2257 29.1523C31.1177 28.9685 31.023 28.7747 30.925 28.5842C30.8203 28.3804 30.7323 28.1668 30.6143 27.973C30.3202 27.4943 29.9729 27.0421 29.7254 26.5418C29.5592 26.2072 29.4579 25.8081 29.4479 25.4354C29.4163 24.1384 29.4363 22.8415 29.4413 21.5429C29.4429 21.0724 29.5891 20.9234 30.0544 20.8405C30.5146 20.7577 30.9815 20.6865 31.4268 20.5523C31.7342 20.4596 32.0216 20.284 32.2991 20.115C32.8357 19.7887 33.3508 19.4343 33.7662 18.9489C34.1068 18.5498 34.3344 18.1108 34.4923 17.6089C34.6186 17.2081 34.7016 16.8188 34.6983 16.4031C34.69 15.6063 34.3411 14.9504 33.836 14.3756C33.5452 14.0444 33.1946 13.7611 32.854 13.4746C32.6912 13.3371 32.4951 13.2327 32.3057 13.1284C31.9967 12.9611 31.6876 12.7905 31.3653 12.6513C31.1161 12.542 30.8535 12.4592 30.5877 12.3979C30.1341 12.2919 29.6755 12.1412 29.2169 12.1296C27.8894 12.0965 26.5602 12.1147 25.2326 12.1312C25.005 12.1346 24.7707 12.2091 24.5531 12.2853C24.4766 12.3118 24.4168 12.4344 24.3819 12.5255C24.3537 12.5983 24.3753 12.6894 24.3753 12.7723C24.3736 15.3264 24.3719 17.8789 24.3703 20.4331C24.3703 20.6269 24.3587 20.8107 24.5713 20.935C24.6677 20.9913 24.7142 21.1304 24.7724 21.2165L24.774 21.2199ZM41.9808 31.9235C41.9808 31.5624 41.9808 31.2642 41.9808 30.9644C41.9808 22.5731 41.9841 14.1802 41.9858 5.78892C41.9858 5.36157 41.9924 4.93422 41.9824 4.50687C41.9725 4.08449 41.9226 4.04142 41.4873 4.03811C41.2381 4.03646 40.9888 4.04308 40.7396 4.04308C32.3356 4.04143 23.9316 4.03811 15.5277 4.03811C15.3798 4.03811 15.2319 4.05965 15.0657 4.07124V31.675C15.1355 31.7048 15.1837 31.7412 15.2352 31.7462C15.6938 31.7943 16.154 31.8671 16.6143 31.8754C17.7906 31.8936 18.9687 31.8854 20.145 31.882C20.5072 31.882 20.6053 31.7777 20.6119 31.4067C20.6169 31.1168 20.6053 30.8269 20.6053 30.5371C20.5986 23.3467 20.592 16.1546 20.5853 8.96422C20.5853 8.75883 20.5853 8.55343 20.5853 8.40602C20.8562 8.13105 21.1286 8.08467 21.4327 8.0913C23.724 8.14596 26.0202 7.89585 28.3098 8.21222C28.9245 8.29669 29.5526 8.28675 30.174 8.32816C30.3086 8.33645 30.4432 8.37951 30.5761 8.40767C30.7904 8.45405 31.0064 8.49877 31.2191 8.54846C31.6162 8.64288 32.0199 8.71742 32.4087 8.8433C32.7676 8.95925 33.1099 9.1282 33.4572 9.27562C33.6565 9.3601 33.8559 9.44623 34.0503 9.54396C34.4358 9.74107 34.8711 9.88683 35.1868 10.1634C35.6902 10.604 36.2668 10.9751 36.6556 11.5399C36.9281 11.9358 37.2172 12.3217 37.4648 12.7325C37.6508 13.0423 37.8236 13.3719 37.9283 13.7147C38.0496 14.1173 38.2739 14.4899 38.2606 14.9388C38.2507 15.237 38.3321 15.5368 38.367 15.8382C38.3985 16.1215 38.5032 16.4296 38.4301 16.6863C38.2822 17.2147 38.2822 17.7481 38.2357 18.2814C38.2224 18.4321 38.2174 18.5895 38.1643 18.7286C38.0479 19.0318 37.9067 19.3249 37.7672 19.6198C37.5711 20.0289 37.3933 20.4513 37.1607 20.8389C36.8284 21.3938 36.4147 21.8957 35.9295 22.3263C35.5158 22.6924 35.0838 23.0452 34.6219 23.3467C34.2547 23.5868 33.831 23.7425 33.4289 23.9314C33.2644 24.0076 33.1298 24.1268 33.1564 24.3041C33.1847 24.4879 33.2628 24.6718 33.3558 24.8358C33.5436 25.1637 33.7612 25.4735 33.9573 25.7965C34.2779 26.3282 34.592 26.8648 34.9077 27.3998C35.0971 27.7195 35.2798 28.0442 35.4742 28.3606C35.6969 28.7233 35.9295 29.0778 36.1538 29.4389C36.3399 29.737 36.5277 30.0319 36.7005 30.3366C36.8915 30.6712 37.0627 31.0158 37.2521 31.3503C37.3036 31.4414 37.4348 31.5044 37.4531 31.5955C37.5129 31.9085 37.7206 31.9284 37.9748 31.9268C39.1512 31.9218 40.3292 31.9268 41.5056 31.9268C41.6418 31.9268 41.7797 31.9268 41.9841 31.9268L41.9808 31.9235Z" fill="#161616"/>
</g>
<path d="M30.2445 45.8916C30.2445 44.7402 30.2434 43.5888 30.2445 42.4374C30.2445 42.0248 30.2722 42.0036 30.6829 42.0036C31.3677 42.0036 32.0515 42.0121 32.7352 42.0004C33.0883 41.994 33.4286 42.0652 33.7507 42.1779C34.091 42.296 34.3705 42.5267 34.5732 42.835C34.619 42.9052 34.6308 42.9817 34.6436 43.0604C34.6596 43.1646 34.6574 43.272 34.7225 43.3655C34.7417 43.3921 34.7524 43.4357 34.746 43.4665C34.6628 43.8684 34.795 44.265 34.7662 44.6679C34.7449 44.9699 34.6457 45.2537 34.6244 45.5535C34.6148 45.6896 34.4942 45.7928 34.3908 45.8874C34.2233 46.0394 34.1305 46.1989 34.2425 46.4424C34.331 46.6348 34.3086 46.8591 34.3257 47.0707C34.346 47.3152 34.3481 47.5566 34.4302 47.799C34.5241 48.0743 34.4857 48.3784 34.506 48.6697C34.5134 48.7835 34.5273 48.8909 34.5785 49.0014C34.6617 49.1801 34.6436 49.3821 34.6532 49.5766C34.6606 49.7159 34.5924 49.7627 34.4601 49.7616C34.1582 49.7574 33.8553 49.7616 33.5534 49.7616C33.3849 49.7616 33.2153 49.7659 33.0467 49.7574C32.86 49.7489 32.8408 49.734 32.8344 49.5617C32.8291 49.4171 32.8014 49.2853 32.7427 49.1524C32.6926 49.0387 32.7 48.91 32.6936 48.7856C32.6798 48.5028 32.668 48.22 32.652 47.9372C32.6403 47.7256 32.5166 47.5385 32.5283 47.3174C32.539 47.1058 32.5251 46.8921 32.5102 46.6805C32.4984 46.52 32.3843 46.4158 32.2392 46.4073C32.1358 46.4009 32.0632 46.4349 32.0568 46.5487C32.0515 46.6454 32.0483 46.7432 32.0483 46.84C32.0483 47.7075 32.0515 48.5762 32.0515 49.4437C32.0515 49.7404 32.0312 49.7584 31.7336 49.7595C31.3421 49.7595 30.9517 49.7616 30.5602 49.7595C30.2488 49.7574 30.2456 49.7552 30.2445 49.4522C30.2413 48.8143 30.2424 48.1764 30.2424 47.5396C30.2424 46.991 30.2424 46.4413 30.2424 45.8927H30.2456L30.2445 45.8916ZM32.0504 44.1746C32.0504 44.3596 32.0504 44.5446 32.0504 44.7296C32.0504 44.8561 32.0963 44.9316 32.2371 44.9241C32.3864 44.9156 32.5368 44.9135 32.6872 44.9039C32.7384 44.9008 32.8035 44.9039 32.8238 44.8433C32.8707 44.7019 32.9422 44.5584 32.9422 44.4159C32.9422 44.198 32.9038 43.9779 32.8558 43.7642C32.8195 43.6015 32.6979 43.4984 32.5208 43.4846C32.4238 43.4772 32.3267 43.4803 32.2296 43.4761C32.1069 43.4697 32.0504 43.525 32.0504 43.6462C32.0504 43.8227 32.0504 43.9981 32.0504 44.1746Z" fill="#161616"/>
<path d="M53.5283 45.9271C53.5283 44.7417 53.5283 43.5574 53.5283 42.372C53.5283 42.0863 53.5837 42.0119 53.8598 42.0119C54.7113 42.0119 55.5649 41.9737 56.4143 42.0342C56.8693 42.0671 57.2978 42.2265 57.6388 42.5334C57.8871 42.7576 58.0576 43.0475 58.0565 43.4055C58.0555 43.9536 58.0544 44.5027 58.0555 45.0508C58.0555 45.3833 57.9265 45.6626 57.691 45.8857C57.5684 46.0015 57.5226 46.1162 57.5461 46.2819C57.5727 46.4646 57.5716 46.6515 57.5812 46.8374C57.5919 47.0466 57.577 47.2559 57.6953 47.4524C57.7624 47.5639 57.7358 47.7116 57.7411 47.8443C57.7496 48.0377 57.7496 48.2278 57.8445 48.4105C57.918 48.5539 57.8796 48.7238 57.8946 48.8821C57.9148 49.0977 57.8743 49.3186 58.0065 49.5226C58.0832 49.6405 58.0267 49.7148 57.8839 49.7456C57.8413 49.7552 57.7954 49.7584 57.7518 49.7584C57.2903 49.7594 56.8288 49.7637 56.3674 49.7584C56.1255 49.7563 56.1137 49.7393 56.0999 49.5024C56.086 49.257 56.0583 49.018 55.9933 48.7759C55.9038 48.4434 55.9411 48.0908 55.9208 47.7466C55.9113 47.5799 55.9177 47.4142 55.8303 47.258C55.7738 47.1571 55.7887 47.0339 55.7823 46.9192C55.7759 46.813 55.778 46.7057 55.7567 46.6027C55.7301 46.4709 55.6097 46.3955 55.4807 46.4083C55.3368 46.4221 55.3166 46.5283 55.3155 46.6377C55.3113 46.9468 55.3134 47.257 55.3134 47.566C55.3134 48.2034 55.3145 48.8396 55.3134 49.4769C55.3134 49.7488 55.3049 49.7573 55.0278 49.7594C54.6196 49.7626 54.2114 49.7648 53.8033 49.7594C53.5518 49.7573 53.5358 49.7403 53.5347 49.4843C53.5326 48.299 53.5347 47.1136 53.5347 45.9282H53.5304L53.5283 45.9271ZM55.3134 44.1766C55.3134 44.2744 55.3113 44.371 55.3134 44.4687C55.3219 44.8883 55.1994 44.9605 55.7994 44.9212C56.1393 44.8989 56.248 44.7863 56.2512 44.4507C56.2534 44.2829 56.2534 44.114 56.248 43.9461C56.2384 43.6732 56.0615 43.4979 55.7876 43.4862C55.7258 43.483 55.6629 43.4809 55.6011 43.4809C55.4114 43.4788 55.3159 43.5691 55.3145 43.7518C55.3145 43.893 55.3145 44.0354 55.3145 44.1766H55.3134Z" fill="#161616"/>
<path d="M39.7744 45.2116C39.7478 45.59 39.7883 46.0202 39.7499 46.4515C39.735 46.6217 39.7872 46.8014 39.7648 46.9747C39.7382 47.1819 39.7488 47.3838 39.7627 47.592C39.7925 48.0423 39.6668 48.4493 39.4206 48.8457C39.2437 49.13 39.0008 49.2812 38.7408 49.4482C38.2047 49.7896 37.6165 49.7875 37.0176 49.7399C36.8141 49.5972 36.5509 49.6279 36.3346 49.4915C36.2088 49.4123 36.0607 49.3467 35.9243 49.2738C35.7847 49.1998 35.6717 49.0983 35.6035 48.9524C35.5375 48.8129 35.4512 48.6829 35.3755 48.5487C35.287 48.3912 35.2668 48.2368 35.2657 48.0719C35.2604 47.2887 35.2583 46.5054 35.2572 45.7221C35.2572 45.1143 35.2657 44.5076 35.2551 43.8998C35.2487 43.552 35.4011 43.2761 35.5524 42.977C35.79 42.5066 36.2482 42.3427 36.6457 42.0891C36.6883 42.0616 36.747 42.0542 36.7992 42.0478C37.2329 41.9992 37.6741 41.9675 38.0992 42.0552C38.5074 42.1398 38.8761 42.3301 39.1904 42.6334C39.3876 42.8237 39.4782 43.0637 39.6252 43.274C39.6487 43.3078 39.6561 43.3565 39.6625 43.3987C39.7286 43.8416 39.8064 44.2824 39.7765 44.7338C39.767 44.8744 39.7755 45.015 39.7755 45.2084L39.7744 45.2116ZM37.0666 45.8669H37.0613C37.0613 46.4821 37.0613 47.0963 37.0613 47.7115C37.0613 47.7908 37.0613 47.87 37.0688 47.9483C37.0837 48.1121 37.1924 48.2294 37.3256 48.2844C37.4705 48.3446 37.6218 48.3277 37.7582 48.1914C37.9096 48.0402 37.9085 47.8626 37.9096 47.684C37.9149 47.0255 37.9096 46.3659 37.9053 45.7073C37.9042 45.4261 37.8787 45.145 37.8957 44.8649C37.917 44.5118 37.8925 44.163 37.868 43.8131C37.8552 43.6366 37.6528 43.4209 37.4844 43.3924C37.4609 43.3882 37.429 43.3945 37.4109 43.4093C37.235 43.5478 37.056 43.6725 37.0613 43.9431C37.0741 44.5837 37.0656 45.2253 37.0656 45.8669H37.0666Z" fill="#161616"/>
<path d="M2.25184 42.0022C2.60586 42.0022 2.96094 41.999 3.31496 42.0022C3.52652 42.0043 3.52121 42.0415 3.58925 42.2426C3.74021 42.6872 3.71789 43.1468 3.74659 43.6021C3.74872 43.6287 3.7434 43.6595 3.75616 43.6808C3.91775 43.9468 3.8731 44.2446 3.89543 44.5329C3.89862 44.5765 3.8933 44.6276 3.91244 44.6638C4.05383 44.9361 4.02407 45.2318 4.04214 45.5212C4.06021 45.802 4.06553 46.0807 4.15695 46.3573C4.24307 46.6169 4.20586 46.902 4.22074 47.1754C4.22818 47.3169 4.23031 47.4573 4.3026 47.5871C4.34619 47.6658 4.35151 47.7562 4.35363 47.8456C4.36001 48.0668 4.36746 48.2881 4.3749 48.5094C4.38128 48.703 4.38659 48.8902 4.4727 49.0764C4.55137 49.2445 4.52373 49.4413 4.52267 49.6274C4.52267 49.7179 4.46632 49.7508 4.38553 49.753C4.2622 49.7572 4.13782 49.7604 4.01343 49.7615C3.64134 49.7615 3.26925 49.7636 2.89715 49.7604C2.66858 49.7583 2.63456 49.7274 2.6133 49.5051C2.59098 49.2668 2.57396 49.0285 2.56227 48.7902C2.55695 48.6796 2.51124 48.6264 2.39961 48.6328C2.38154 48.6328 2.36453 48.6328 2.34646 48.6317C1.98181 48.6158 1.96054 48.6338 1.94141 49.004C1.93184 49.1902 1.92652 49.3764 1.92759 49.5625C1.92865 49.6976 1.86593 49.7561 1.73729 49.7572C1.55975 49.7593 1.38327 49.7615 1.20573 49.7615C0.878286 49.7615 0.549781 49.7657 0.222339 49.7583C0.0171561 49.754 -0.00198302 49.7264 0.000143227 49.5211C0.00120635 49.3615 0.0150293 49.2072 0.0756273 49.053C0.150046 48.8615 0.136223 48.6519 0.150044 48.4487C0.170243 48.1413 0.155359 47.8339 0.269113 47.5349C0.338216 47.3541 0.308449 47.1488 0.315891 46.9541C0.32227 46.7945 0.326523 46.6382 0.409446 46.4914C0.460476 46.3988 0.460476 46.2871 0.462602 46.1797C0.465792 45.9754 0.467917 45.7722 0.478549 45.568C0.488117 45.3754 0.487055 45.184 0.576357 44.9989C0.627387 44.8935 0.61463 44.7563 0.623135 44.6329C0.645461 44.2999 0.648651 43.9691 0.733701 43.6372C0.833634 43.2521 0.788981 42.8436 0.814496 42.4468C0.821938 42.3298 0.843201 42.2319 0.918683 42.1309C0.994165 42.0298 1.06965 41.999 1.1834 42C1.53742 42.0032 1.89144 42.0011 2.24652 42L2.25184 42.0022ZM2.39961 46.4371C2.39961 46.4371 2.3943 46.4371 2.39111 46.4371C2.39111 46.2073 2.39323 45.9775 2.39004 45.7478C2.38898 45.6627 2.39961 45.5531 2.26672 45.5574C2.14446 45.5616 2.14553 45.6659 2.13702 45.7531C2.12852 45.8414 2.12108 45.9297 2.11789 46.0169C2.10513 46.3882 2.08918 46.7584 2.08705 47.1296C2.08599 47.2935 2.22951 47.3711 2.35496 47.286C2.43895 47.2286 2.43363 47.1328 2.43044 47.0456C2.423 46.8424 2.41024 46.6403 2.39961 46.4371Z" fill="#161616"/>
<path d="M26.9337 44.6278C26.6942 44.6278 26.4546 44.6278 26.2161 44.6278C26.0841 44.6278 26.0234 44.5632 26.0224 44.4342C26.0224 44.2407 26.017 44.0471 26.0149 43.8546C26.0128 43.624 25.8339 43.4157 25.6114 43.385C25.5806 43.3808 25.2431 43.5585 25.226 43.5881C25.1377 43.7446 25.1962 44.008 25.2867 44.1782C25.4656 44.5125 25.7945 44.6849 26.0596 44.9207C26.3205 45.1534 26.5536 45.4115 26.8113 45.6452C27.0263 45.8398 27.2212 46.0672 27.383 46.3084C27.4948 46.4744 27.6417 46.6394 27.6449 46.8636C27.6449 46.8985 27.6481 46.9377 27.6651 46.9662C27.9153 47.3946 27.7673 47.8578 27.7875 48.3063C27.5906 48.6701 27.4618 49.0636 27.0753 49.3163C26.7932 49.5004 26.4759 49.5818 26.1874 49.7352C26.1299 49.7658 26.049 49.7595 25.9787 49.7606C25.7307 49.7637 25.4826 49.7616 25.2345 49.7627C25.1174 49.7627 25.0046 49.751 24.9098 49.6707C24.8832 49.6485 24.8459 49.621 24.8172 49.6252C24.5691 49.659 24.3924 49.4782 24.1795 49.4105C24.0081 49.3555 23.8771 49.1926 23.7536 49.0509C23.5663 48.8351 23.48 48.5792 23.3938 48.3052C23.2565 47.8695 23.3044 47.4369 23.2873 47.0022C23.2767 46.7505 23.3342 46.6902 23.5886 46.6849C23.908 46.6786 24.2263 46.6817 24.5457 46.6838C24.6873 46.6838 24.83 46.6838 24.9705 46.7018C25.1355 46.7219 25.1483 46.7515 25.1142 46.9313C25.11 46.9567 25.1004 46.9874 25.11 47.0075C25.2228 47.2529 25.1472 47.512 25.1696 47.7637C25.1739 47.8166 25.1696 47.8695 25.1739 47.9224C25.2047 48.2841 25.4091 48.4226 25.7562 48.3063C25.8765 48.2661 25.9627 48.1646 25.9862 48.0408C26.0202 47.86 26.0288 47.677 25.9106 47.512C25.8244 47.3925 25.7754 47.2507 25.7051 47.1217C25.5795 46.8911 25.4006 46.724 25.2079 46.559C24.6682 46.0958 24.1188 45.642 23.6493 45.1048C23.6376 45.0921 23.6142 45.0815 23.6131 45.0688C23.6046 44.8477 23.3778 44.6997 23.4108 44.4638C23.4204 44.394 23.3917 44.3284 23.3523 44.265C23.3001 44.1804 23.2735 44.0873 23.3299 43.99C23.3587 43.9403 23.3629 43.8895 23.3331 43.8398C23.2958 43.7774 23.3022 43.7235 23.3608 43.6769C23.398 43.6473 23.4044 43.6039 23.413 43.5595C23.5364 42.872 23.9825 42.4617 24.5926 42.1814C25.1824 41.9106 25.7913 41.9952 26.3886 42.101C26.6835 42.1528 26.9433 42.3496 27.1605 42.5717C27.1903 42.6023 27.2116 42.6415 27.2531 42.6616C27.4841 42.7726 27.5629 42.9916 27.6449 43.2073C27.6513 43.2232 27.6449 43.2465 27.6545 43.2591C27.9227 43.6325 27.7641 44.0566 27.7992 44.4564C27.812 44.5981 27.7237 44.6352 27.5991 44.633C27.3777 44.6299 27.1562 44.633 26.9348 44.633V44.6288L26.9337 44.6278Z" fill="#161616"/>
<path d="M8.61887 44.621C8.38858 44.621 8.15936 44.6178 7.92907 44.6221C7.79323 44.6252 7.73593 44.5585 7.73486 44.4325C7.7338 44.2567 7.73593 44.0798 7.73486 43.9041C7.73274 43.6785 7.64784 43.5387 7.4876 43.4889C7.23502 43.4106 7.00474 43.4762 6.88269 43.6605C6.78506 43.8077 6.78081 43.9326 6.88588 44.0746C7.07584 44.3319 7.2987 44.5627 7.55127 44.7544C8.1583 45.2162 8.6401 45.7965 9.11235 46.3821C9.2641 46.5706 9.40418 46.7941 9.39463 47.0652C9.39039 47.1806 9.43815 47.2865 9.46574 47.3966C9.54427 47.7101 9.57929 48.0183 9.44133 48.3455C9.36916 48.517 9.26729 48.677 9.20573 48.8559C9.14524 49.0338 8.98287 49.1577 8.8343 49.2668C8.61675 49.4278 8.37267 49.54 8.11266 49.6396C7.76458 49.773 7.42286 49.7571 7.07371 49.7614C6.89012 49.7635 6.70122 49.7762 6.54416 49.6449C6.51975 49.6237 6.47836 49.6152 6.4444 49.6131C6.1186 49.5909 5.85223 49.4024 5.62407 49.2192C5.43305 49.0656 5.28129 48.8337 5.155 48.5933C4.98096 48.2629 5.03402 47.9272 5.01917 47.5915C5.00961 47.3712 5.01598 47.1509 5.01917 46.9296C5.02235 46.7199 5.051 46.685 5.26325 46.6776C5.51052 46.6691 5.75778 46.6744 6.00505 46.6754C6.20881 46.6765 6.4115 46.6829 6.61526 46.6839C6.74685 46.6839 6.80629 46.7432 6.80416 46.8788C6.79992 47.1605 6.80204 47.4432 6.80416 47.7249C6.80522 47.8838 6.80841 48.0373 6.94106 48.1633C7.08857 48.3042 7.37086 48.373 7.5205 48.2841C7.70833 48.1718 7.76246 47.8753 7.68923 47.6487C7.49184 47.0376 7.00686 46.667 6.56644 46.2571C6.27461 45.986 5.95411 45.7425 5.67182 45.4629C5.43411 45.2278 5.25582 44.9535 5.13802 44.6231C5.05206 44.3817 5.03402 44.1519 5.01598 43.9083C4.98202 43.4264 5.21549 43.0516 5.51689 42.7254C5.73656 42.4871 5.99656 42.2817 6.30008 42.1376C6.4062 42.0868 6.50914 42.0529 6.62269 42.0349C7.03445 41.9703 7.44515 42.0106 7.85691 42.0349C8.05005 42.0466 8.21348 42.1451 8.37161 42.2255C8.74092 42.414 9.06671 42.6714 9.29382 43.0304C9.31186 43.06 9.35112 43.0865 9.35219 43.114C9.36067 43.4222 9.58353 43.6838 9.53366 44.0057C9.51349 44.1349 9.53366 44.2705 9.52729 44.4018C9.5188 44.585 9.49121 44.6168 9.30655 44.6231C9.07733 44.6305 8.84704 44.6252 8.61781 44.6252C8.61781 44.6231 8.61781 44.6221 8.61781 44.6199L8.61887 44.621Z" fill="#161616"/>
<path d="M13.6454 44.6231C13.433 44.6231 13.2205 44.6263 13.0081 44.6231C12.7903 44.6188 12.7627 44.5955 12.751 44.3792C12.7415 44.2032 12.7553 44.0262 12.751 43.8502C12.7436 43.583 12.5609 43.4441 12.2985 43.4484C12.0085 43.4526 11.8715 43.5947 11.8332 43.8481C11.8173 43.953 11.8534 44.041 11.9341 44.1312C12.2156 44.445 12.5301 44.7196 12.8456 44.9973C13.1812 45.2921 13.4787 45.6282 13.7814 45.959C14.0077 46.207 14.1585 46.4965 14.3455 46.7658C14.3603 46.787 14.3752 46.8145 14.3752 46.8379C14.3731 47.1676 14.5484 47.4644 14.543 47.7963C14.5409 47.9649 14.4952 48.1197 14.4591 48.2808C14.4103 48.4981 14.2987 48.6805 14.2137 48.8735C14.1394 49.0442 13.9769 49.1809 13.8165 49.2923C13.5987 49.4428 13.3565 49.5403 13.1101 49.6421C12.7096 49.8086 12.3134 49.7481 11.914 49.7619C11.8099 49.7651 11.7026 49.7619 11.6165 49.6771C11.5878 49.6485 11.539 49.6294 11.4976 49.6241C10.9314 49.5552 10.5851 49.1629 10.2345 48.7749C10.2037 48.5501 10.0189 48.3805 10.0285 48.1345C10.0433 47.738 10.0263 47.3404 10.0274 46.9428C10.0274 46.7191 10.0614 46.6799 10.2876 46.6767C10.721 46.6714 11.1544 46.6714 11.5878 46.6788C11.7918 46.682 11.8162 46.7117 11.8194 46.9121C11.8237 47.2206 11.8184 47.5302 11.8215 47.8387C11.8226 47.9426 11.8237 48.0454 11.9023 48.1366C12.0457 48.302 12.3845 48.3836 12.5418 48.2787C12.7245 48.1568 12.7829 47.8631 12.7043 47.6351C12.5226 47.1103 12.1254 46.7605 11.7366 46.4011C11.3722 46.0639 10.9579 45.7777 10.6308 45.4023C10.4491 45.1935 10.293 44.9613 10.1612 44.7047C10.0072 44.4047 10.0338 44.1089 10.0306 43.8088C10.0263 43.3572 10.26 42.9988 10.5585 42.6861C10.6456 42.5949 10.7274 42.4953 10.8315 42.4147C11.1364 42.1793 11.4657 42.0107 11.8587 42.0023C12.1147 41.997 12.3718 42.0023 12.6278 42.0054C12.9454 42.0107 13.2142 42.1454 13.4925 42.2896C13.8303 42.4634 14.0703 42.7221 14.2892 43.0137C14.3104 43.0413 14.3487 43.0646 14.354 43.0943C14.4474 43.5459 14.6078 43.9891 14.5388 44.4641C14.5197 44.5955 14.4336 44.6167 14.3327 44.6188C14.1033 44.6231 13.8728 44.6199 13.6423 44.6199C13.6423 44.6199 13.6423 44.621 13.6423 44.622L13.6454 44.6231Z" fill="#161616"/>
<path d="M41.166 46.6833C41.3807 46.6833 41.5955 46.677 41.8103 46.6854C42.0562 46.6949 42.0852 46.7265 42.0873 46.9667C42.0905 47.2827 42.082 47.5976 42.0916 47.9136C42.1034 48.2549 42.4911 48.4487 42.7907 48.2696C42.9142 48.1959 42.9303 48.0685 42.9282 47.9452C42.9228 47.6808 42.8723 47.4291 42.7123 47.2047C42.4342 46.816 42.1013 46.4863 41.7104 46.2019C41.4387 46.0039 41.2068 45.7522 40.9598 45.5204C40.7955 45.3656 40.6269 45.2065 40.5356 45.0001C40.4293 44.7599 40.2607 44.5366 40.2897 44.2512C40.2993 44.1564 40.2865 44.0584 40.2789 43.9625C40.2542 43.6055 40.396 43.3063 40.5667 42.9956C40.8159 42.5437 41.2282 42.2772 41.6707 42.1255C42.1829 41.9496 42.7542 41.9696 43.2858 42.1171C43.667 42.2224 44.0246 42.4141 44.292 42.7185C44.5218 42.9808 44.7204 43.2557 44.729 43.6297C44.7355 43.8793 44.6893 44.1342 44.7892 44.3818C44.8321 44.4882 44.685 44.6388 44.5583 44.6398C44.1116 44.643 43.6638 44.644 43.217 44.6388C43.0527 44.6367 42.9464 44.5008 42.9733 44.3417C43.0162 44.0953 42.9196 43.8646 42.8927 43.6265C42.8906 43.6023 42.8766 43.5707 42.8573 43.5591C42.6855 43.4538 42.5008 43.4454 42.3182 43.5191C42.1786 43.576 42.0905 43.6824 42.0938 43.8435C42.097 43.9741 42.1217 44.0763 42.2183 44.1932C42.5029 44.5356 42.8734 44.7852 43.1794 45.1001C43.5499 45.4804 43.9687 45.8185 44.2769 46.2557C44.3854 46.4094 44.4649 46.5832 44.5647 46.7391C44.7784 47.0709 44.6968 47.4301 44.728 47.7798C44.7355 47.8662 44.7172 47.9557 44.7258 48.0421C44.758 48.356 44.6238 48.6088 44.4552 48.8627C44.3392 49.0365 44.2361 49.2061 44.0407 49.3093C43.8205 49.4251 43.6283 49.6011 43.3599 49.6126C42.9926 49.8423 42.5834 49.7359 42.1893 49.7506C42.0744 49.7548 41.9574 49.7548 41.8683 49.6569C41.8479 49.6337 41.8038 49.6221 41.7695 49.6211C41.4827 49.6116 41.2733 49.4294 41.0296 49.3209C40.7053 49.1766 40.6065 48.8964 40.44 48.6404C40.1877 48.2517 40.309 47.8272 40.2736 47.4185C40.2575 47.2384 40.2865 47.052 40.2736 46.8676C40.2639 46.7444 40.3187 46.6865 40.4411 46.6865C40.6827 46.6865 40.9243 46.6865 41.1649 46.6865C41.1649 46.6865 41.1649 46.6854 41.1649 46.6844L41.166 46.6833Z" fill="#161616"/>
<path d="M49.4895 45.893C49.4895 44.7326 49.4884 43.5721 49.4895 42.4116C49.4895 42.0862 49.5758 42.0032 49.9027 42.0021C50.8641 42 51.8256 42 52.787 42C53.0988 42 53.2002 42.1064 53.1992 42.4191C53.1992 42.6499 53.2056 42.8797 53.1992 43.1105C53.1916 43.3796 53.0913 43.4732 52.8193 43.4732C52.4244 43.4732 52.0284 43.4689 51.6335 43.4711C51.3476 43.4732 51.3098 43.5157 51.3098 43.7976C51.3098 43.9923 51.299 44.1869 51.3065 44.3816C51.3173 44.6645 51.3983 44.7368 51.6842 44.7379C52.0791 44.7379 52.4751 44.7347 52.8701 44.7379C53.1754 44.739 53.1992 44.7613 53.2035 45.0495C53.2067 45.3059 53.2056 45.5633 53.1981 45.8196C53.1905 46.0749 53.0783 46.1834 52.814 46.1866C52.4277 46.1909 52.0414 46.1866 51.6551 46.1866C51.3465 46.1866 51.3141 46.2206 51.313 46.5217C51.313 47.0003 51.3087 47.4779 51.3109 47.9566C51.313 48.2682 51.3594 48.314 51.6702 48.3161C52.0565 48.3182 52.4428 48.3129 52.8291 48.314C53.0513 48.314 53.1862 48.4193 53.1981 48.6405C53.2143 48.949 53.2035 49.2596 53.2024 49.5691C53.2024 49.6861 53.1344 49.7478 53.019 49.7574C52.9564 49.7627 52.8938 49.7627 52.8301 49.7627C51.859 49.7627 50.889 49.7627 49.9178 49.7627C49.5596 49.7627 49.4873 49.6872 49.4873 49.3202C49.4873 48.1778 49.4873 47.0344 49.4873 45.892L49.4895 45.893Z" fill="#161616"/>
<path d="M15.0431 45.9031C15.0431 44.7527 15.0431 43.6012 15.0431 42.4508C15.0431 42.3796 15.0389 42.3083 15.0463 42.2382C15.0632 42.0723 15.1107 42.0202 15.2788 42.0096C15.4458 41.9989 15.6128 42.0053 15.7798 42.0043C16.6244 42.0032 17.4689 42.0011 18.3135 42C18.5555 42 18.5893 42.0266 18.5936 42.2711C18.5999 42.572 18.5988 42.8729 18.5936 43.1738C18.5893 43.4609 18.5724 43.4736 18.2923 43.4736C17.8959 43.4736 17.5006 43.4715 17.1042 43.4736C16.8506 43.4747 16.8358 43.4885 16.8326 43.7426C16.8294 44.0084 16.8252 44.2742 16.8337 44.539C16.84 44.7155 16.8622 44.7325 17.0408 44.7335C17.4805 44.7367 17.9213 44.7335 18.361 44.7335C18.5798 44.7335 18.5893 44.7399 18.5925 44.9526C18.5978 45.2715 18.5988 45.5905 18.5936 45.9084C18.5904 46.137 18.5354 46.1859 18.3061 46.1859C17.9012 46.1859 17.4964 46.1806 17.0916 46.1827C16.8495 46.1827 16.8337 46.2008 16.8315 46.4368C16.8284 46.9769 16.8284 47.517 16.8305 48.0571C16.8305 48.3006 16.8442 48.3112 17.0852 48.3123C17.508 48.3144 17.9298 48.3102 18.3526 48.3144C18.5523 48.3166 18.5872 48.3453 18.5914 48.542C18.5988 48.8875 18.5904 49.232 18.5946 49.5775C18.5967 49.7158 18.5375 49.7657 18.4044 49.7625C18.1137 49.7572 17.823 49.7604 17.5334 49.7604C16.803 49.7604 16.0726 49.7604 15.3412 49.7604C15.06 49.7604 15.041 49.7434 15.041 49.4616C15.0389 48.2751 15.041 47.0896 15.041 45.9031H15.0431Z" fill="#161616"/>
<path d="M46.2604 46.6189C46.2604 45.6711 46.2604 44.7233 46.2604 43.7754C46.2604 43.7308 46.2572 43.6871 46.2583 43.6425C46.2614 43.518 46.1985 43.4691 46.0799 43.4712C45.9141 43.4744 45.7482 43.4733 45.5824 43.4744C45.3442 43.4744 45.3232 43.4627 45.297 43.234C45.2581 42.8808 45.3085 42.5276 45.3074 42.1734C45.3074 42.0543 45.3757 41.9989 45.4922 42.0011C45.5268 42.0011 45.5625 42 45.5971 42C46.5763 42 47.5544 42 48.5336 42C48.5776 42 48.6207 42 48.6647 42.0021C48.9575 42.0117 48.9901 42.0426 48.9953 42.3468C49.0006 42.6393 49.0058 42.9319 48.9974 43.2233C48.9922 43.434 48.9555 43.4638 48.7445 43.4701C48.5871 43.4755 48.4297 43.4659 48.2722 43.4712C48.0707 43.4776 48.0435 43.4989 48.0382 43.7031C48.0298 44.0222 48.033 44.3403 48.033 44.6594C48.033 46.2445 48.0351 47.8306 48.0361 49.4156C48.0361 49.4507 48.0382 49.4869 48.0361 49.522C48.0246 49.7241 48.0025 49.7571 47.8052 49.7592C47.3592 49.7645 46.9142 49.7634 46.4682 49.7581C46.274 49.756 46.2604 49.74 46.2583 49.54C46.2541 49.106 46.2583 48.672 46.2583 48.238C46.2583 47.6976 46.2583 47.1572 46.2583 46.6168H46.2604V46.6189Z" fill="#161616"/>
<path d="M21.7965 46.6275C21.7965 47.5126 21.7965 48.3987 21.7965 49.2838C21.7965 49.3636 21.7965 49.4434 21.7921 49.5232C21.7822 49.737 21.7713 49.7551 21.5575 49.7583C21.1015 49.7636 20.6444 49.7647 20.1885 49.7583C19.9528 49.7551 19.9396 49.7381 19.9364 49.5147C19.932 49.2136 19.9342 48.9126 19.9342 48.6115C19.9342 47.0264 19.9342 45.4414 19.9342 43.8563C19.9342 43.5996 19.7968 43.4709 19.522 43.4702C19.3938 43.4702 19.2666 43.467 19.1384 43.468C19.0178 43.468 18.9477 43.4149 18.9411 43.2968C18.9213 42.934 18.9126 42.5713 18.9356 42.2085C18.9444 42.0681 19.0342 42.0064 19.1724 42.0043C19.3642 42.0011 19.556 42 19.7467 42C20.6324 42 21.517 42 22.4026 42C22.4213 42 22.4388 42 22.4574 42C22.7622 42.0085 22.7994 42.0457 22.8005 42.3447C22.8016 42.6191 22.806 42.8936 22.8005 43.1681C22.795 43.4468 22.7654 43.4723 22.4848 43.4723C22.3116 43.4723 22.1385 43.4723 21.9653 43.468C21.8524 43.4659 21.7965 43.5148 21.7976 43.6255C21.7976 43.6968 21.7943 43.767 21.7943 43.8382C21.7943 44.768 21.7943 45.6978 21.7943 46.6275H21.7965Z" fill="#161616"/>
<defs>
<clipPath id="clip0_69_247">
<rect width="35" height="36" fill="white" transform="translate(11)"/>
</clipPath>
</defs>
</svg>
